<svg xmlns="http://www.w3.org/2000/svg" viewBox="0 0 750 420" width="750" height="420">
<style>
  .title { font-family: -apple-system, BlinkMacSystemFont, "Segoe UI", Roboto, Helvetica, Arial, sans-serif; font-size: 16px; font-weight: 600; fill: #1e293b; }
  .axis { font-family: -apple-system, BlinkMacSystemFont, "Segoe UI", Roboto, Helvetica, Arial, sans-serif; font-size: 12px; fill: #64748b; }
  .cat { font-family: -apple-system, BlinkMacSystemFont, "Segoe UI", Roboto, Helvetica, Arial, sans-serif; font-size: 13px; font-weight: 600; fill: #334155; }
  .legend { font-family: -apple-system, BlinkMacSystemFont, "Segoe UI", Roboto, Helvetica, Arial, sans-serif; font-size: 12px; font-weight: 600; }
  .bar-val { font-family: -apple-system, BlinkMacSystemFont, "Segoe UI", Roboto, Helvetica, Arial, sans-serif; font-size: 10px; font-weight: 600; fill: #1e293b; }
  .grid { stroke: #e2e8f0; stroke-width: 1; stroke-dasharray: 4 4; }
</style>
<rect width="100%" height="100%" fill="#ffffff" rx="8" />
<text x="375.0" y="32" text-anchor="middle" class="title">Unseen Test ROC-AUC by Generator Paradigm (Frozen Final Evaluation)</text>
<line x1="80" y1="360.0" x2="570" y2="360.0" class="grid" />
<text x="70" y="364.0" text-anchor="end" class="axis">0.50</text>
<line x1="80" y1="300.0" x2="570" y2="300.0" class="grid" />
<text x="70" y="304.0" text-anchor="end" class="axis">0.60</text>
<line x1="80" y1="240.0" x2="570" y2="240.0" class="grid" />
<text x="70" y="244.0" text-anchor="end" class="axis">0.70</text>
<line x1="80" y1="180.0" x2="570" y2="180.0" class="grid" />
<text x="70" y="184.0" text-anchor="end" class="axis">0.80</text>
<line x1="80" y1="120.0" x2="570" y2="120.0" class="grid" />
<text x="70" y="124.0" text-anchor="end" class="axis">0.90</text>
<line x1="80" y1="60.0" x2="570" y2="60.0" class="grid" />
<text x="70" y="64.0" text-anchor="end" class="axis">1.00</text>
<line x1="80" y1="60" x2="80" y2="360" stroke="#94a3b8" stroke-width="1.5" />
<line x1="80" y1="360" x2="570" y2="360" stroke="#94a3b8" stroke-width="1.5" />
<text x="24" y="210.0" text-anchor="middle" transform="rotate(-90 24 210.0)" class="cat">ROC-AUC</text>
<text x="161.66666666666669" y="384" text-anchor="middle" class="cat">Aggregate Unseen</text>
<rect x="104.5" y="120.6" width="34.1" height="239.4" fill="#2563eb" rx="3" />
<text x="121.6" y="114.6" text-anchor="middle" class="bar-val">0.8991</text>
<rect x="142.6" y="278.0" width="34.1" height="82.0" fill="#059669" rx="3" />
<text x="159.7" y="272.0" text-anchor="middle" class="bar-val">0.6366</text>
<rect x="180.7" y="128.9" width="34.1" height="231.1" fill="#d97706" rx="3" />
<text x="197.8" y="122.9" text-anchor="middle" class="bar-val">0.8851</text>
<text x="325.0" y="384" text-anchor="middle" class="cat">BigGAN (GAN)</text>
<rect x="267.8" y="76.1" width="34.1" height="283.9" fill="#2563eb" rx="3" />
<text x="284.9" y="70.1" text-anchor="middle" class="bar-val">0.9732</text>
<rect x="305.9" y="302.7" width="34.1" height="57.3" fill="#059669" rx="3" />
<text x="323.0" y="296.7" text-anchor="middle" class="bar-val">0.5955</text>
<rect x="344.1" y="92.1" width="34.1" height="267.9" fill="#d97706" rx="3" />
<text x="361.1" y="86.1" text-anchor="middle" class="bar-val">0.9465</text>
<text x="488.33333333333337" y="384" text-anchor="middle" class="cat">Midjourney (Diffusion)</text>
<rect x="431.2" y="166.5" width="34.1" height="193.5" fill="#2563eb" rx="3" />
<text x="448.2" y="160.5" text-anchor="middle" class="bar-val">0.8224</text>
<rect x="469.3" y="254.1" width="34.1" height="105.9" fill="#059669" rx="3" />
<text x="486.3" y="248.1" text-anchor="middle" class="bar-val">0.6765</text>
<rect x="507.4" y="166.3" width="34.1" height="193.7" fill="#d97706" rx="3" />
<text x="524.4" y="160.3" text-anchor="middle" class="bar-val">0.8228</text>
<rect x="590" y="70" width="14" height="14" fill="#2563eb" rx="3" />
<text x="610" y="82" class="legend" fill="#2563eb">E1: Spatial</text>
<rect x="590" y="98" width="14" height="14" fill="#059669" rx="3" />
<text x="610" y="110" class="legend" fill="#059669">E2: Frequency</text>
<rect x="590" y="126" width="14" height="14" fill="#d97706" rx="3" />
<text x="610" y="138" class="legend" fill="#d97706">E3: Dual-Domain</text>
</svg>